# xmcd CD database file
#
# Track frame offsets:
#	150
#	12682
#	25312
#	36790
#	51530
#	62550
#	73762
#	85835
#	96672
#	107065
#	118890
#	129010
#
# Disc length: 1855 seconds
#
# Revision: 1
# Processed by: cddbd v1.5.2PL0 Copyright (c) Steve Scherf et al.
# Submitted via: CDex 1.70beta2
#
DISCID=ac073d0c
DTITLE=The Capitols - Dance The Cool Jerk With The Capitols
DYEAR=1999
DGENRE=Soul
TTITLE0=Cool Jerk
TTITLE1=My Girl
TTITLE2=I Got My Mojo Working
TTITLE3=Please Please Please
TTITLE4=In The Midnight Hour
TTITLE5=Good Lovin'
TTITLE6=Love Makes The World Go Round
TTITLE7=Zig Zaggin'
TTITLE8=Dog and Cat
TTITLE9=Hello Stranger
TTITLE10=Tired Running From You
TTITLE11=The Kick
EXTD=YEAR: 1999
EXTT0=
EXTT1=
EXTT2=
EXTT3=
EXTT4=
EXTT5=
EXTT6=
EXTT7=
EXTT8=
EXTT9=
EXTT10=
EXTT11=
PLAYORDER=
